<svg width="200" height="32" viewBox="0 0 200 32" fill="none" xmlns="http://www.w3.org/2000/svg">
<path d="M40.688 20.816H44.592V22H39.232V10.848H40.688V20.816ZM49.9623 22.144C49.1409 22.144 48.3943 21.9573 47.7223 21.584C47.0609 21.2107 46.5383 20.6827 46.1543 20C45.7809 19.3067 45.5943 18.5067 45.5943 17.6C45.5943 16.704 45.7863 15.9147 46.1703 15.232C46.5649 14.5387 47.0983 14.0107 47.7703 13.648C48.4423 13.2747 49.1943 13.088 50.0263 13.088C50.8583 13.088 51.6103 13.2747 52.2823 13.648C52.9543 14.0107 53.4823 14.5333 53.8663 15.216C54.2609 15.8987 54.4583 16.6933 54.4583 17.6C54.4583 18.5067 54.2556 19.3067 53.8503 20C53.4556 20.6827 52.9169 21.2107 52.2343 21.584C51.5516 21.9573 50.7943 22.144 49.9623 22.144ZM49.9623 20.864C50.4849 20.864 50.9756 20.7413 51.4343 20.496C51.8929 20.2507 52.2609 19.8827 52.5383 19.392C52.8263 18.9013 52.9703 18.304 52.9703 17.6C52.9703 16.896 52.8316 16.2987 52.5543 15.808C52.2769 15.3173 51.9143 14.9547 51.4663 14.72C51.0183 14.4747 50.5329 14.352 50.0103 14.352C49.4769 14.352 48.9863 14.4747 48.5383 14.72C48.1009 14.9547 47.7489 15.3173 47.4823 15.808C47.2156 16.2987 47.0823 16.896 47.0823 17.6C47.0823 18.3147 47.2103 18.9173 47.4663 19.408C47.7329 19.8987 48.0849 20.2667 48.5223 20.512C48.9596 20.7467 49.4396 20.864 49.9623 20.864ZM59.9886 13.088C60.746 13.088 61.4073 13.2533 61.9726 13.584C62.5486 13.9147 62.9753 14.3307 63.2526 14.832V13.232H64.7246V22.192C64.7246 22.992 64.554 23.7013 64.2126 24.32C63.8713 24.9493 63.3806 25.44 62.7406 25.792C62.1113 26.144 61.3753 26.32 60.5326 26.32C59.3806 26.32 58.4206 26.048 57.6526 25.504C56.8846 24.96 56.4313 24.2187 56.2926 23.28H57.7326C57.8926 23.8133 58.2233 24.24 58.7246 24.56C59.226 24.8907 59.8286 25.056 60.5326 25.056C61.3326 25.056 61.9833 24.8053 62.4846 24.304C62.9966 23.8027 63.2526 23.0987 63.2526 22.192V20.352C62.9646 20.864 62.538 21.2907 61.9726 21.632C61.4073 21.9733 60.746 22.144 59.9886 22.144C59.21 22.144 58.5006 21.952 57.8606 21.568C57.2313 21.184 56.7353 20.6453 56.3726 19.952C56.01 19.2587 55.8286 18.4693 55.8286 17.584C55.8286 16.688 56.01 15.904 56.3726 15.232C56.7353 14.5493 57.2313 14.0213 57.8606 13.648C58.5006 13.2747 59.21 13.088 59.9886 13.088ZM63.2526 17.6C63.2526 16.9387 63.1193 16.3627 62.8526 15.872C62.586 15.3813 62.2233 15.008 61.7646 14.752C61.3166 14.4853 60.8206 14.352 60.2766 14.352C59.7326 14.352 59.2366 14.48 58.7886 14.736C58.3406 14.992 57.9833 15.3653 57.7166 15.856C57.45 16.3467 57.3166 16.9227 57.3166 17.584C57.3166 18.256 57.45 18.8427 57.7166 19.344C57.9833 19.8347 58.3406 20.2133 58.7886 20.48C59.2366 20.736 59.7326 20.864 60.2766 20.864C60.8206 20.864 61.3166 20.736 61.7646 20.48C62.2233 20.2133 62.586 19.8347 62.8526 19.344C63.1193 18.8427 63.2526 18.2613 63.2526 17.6ZM67.9371 11.808C67.6598 11.808 67.4251 11.712 67.2331 11.52C67.0411 11.328 66.9451 11.0933 66.9451 10.816C66.9451 10.5387 67.0411 10.304 67.2331 10.112C67.4251 9.92 67.6598 9.824 67.9371 9.824C68.2038 9.824 68.4278 9.92 68.6091 10.112C68.8011 10.304 68.8971 10.5387 68.8971 10.816C68.8971 11.0933 68.8011 11.328 68.6091 11.52C68.4278 11.712 68.2038 11.808 67.9371 11.808ZM68.6411 13.232V22H67.1851V13.232H68.6411ZM75.3946 13.072C76.4613 13.072 77.3253 13.3973 77.9866 14.048C78.648 14.688 78.9786 15.616 78.9786 16.832V22H77.5386V17.04C77.5386 16.1653 77.32 15.4987 76.8826 15.04C76.4453 14.5707 75.848 14.336 75.0906 14.336C74.3226 14.336 73.7093 14.576 73.2506 15.056C72.8026 15.536 72.5786 16.2347 72.5786 17.152V22H71.1226V13.232H72.5786V14.48C72.8666 14.032 73.256 13.6853 73.7466 13.44C74.248 13.1947 74.7973 13.072 75.3946 13.072ZM97.3026 13.232L94.5666 22H93.0626L90.9506 15.04L88.8386 22H87.3346L84.5826 13.232H86.0706L88.0866 20.592L90.2626 13.232H91.7506L93.8786 20.608L95.8626 13.232H97.3026ZM99.4996 11.808C99.2223 11.808 98.9876 11.712 98.7956 11.52C98.6036 11.328 98.5076 11.0933 98.5076 10.816C98.5076 10.5387 98.6036 10.304 98.7956 10.112C98.9876 9.92 99.2223 9.824 99.4996 9.824C99.7663 9.824 99.9903 9.92 100.172 10.112C100.364 10.304 100.46 10.5387 100.46 10.816C100.46 11.0933 100.364 11.328 100.172 11.52C99.9903 11.712 99.7663 11.808 99.4996 11.808ZM100.204 13.232V22H98.7476V13.232H100.204ZM104.461 14.432V19.6C104.461 20.0267 104.552 20.3307 104.733 20.512C104.914 20.6827 105.229 20.768 105.677 20.768H106.749V22H105.437C104.626 22 104.018 21.8133 103.613 21.44C103.208 21.0667 103.005 20.4533 103.005 19.6V14.432H101.869V13.232H103.005V11.024H104.461V13.232H106.749V14.432H104.461ZM112.865 13.072C113.527 13.072 114.124 13.216 114.657 13.504C115.191 13.7813 115.607 14.2027 115.905 14.768C116.215 15.3333 116.369 16.0213 116.369 16.832V22H114.929V17.04C114.929 16.1653 114.711 15.4987 114.273 15.04C113.836 14.5707 113.239 14.336 112.481 14.336C111.713 14.336 111.1 14.576 110.641 15.056C110.193 15.536 109.969 16.2347 109.969 17.152V22H108.513V10.16H109.969V14.48C110.257 14.032 110.652 13.6853 111.153 13.44C111.665 13.1947 112.236 13.072 112.865 13.072ZM129.317 10.848V12.032H124.469V15.792H128.405V16.976H124.469V22H123.013V10.848H129.317ZM130.532 17.584C130.532 16.688 130.713 15.904 131.076 15.232C131.438 14.5493 131.934 14.0213 132.564 13.648C133.204 13.2747 133.913 13.088 134.692 13.088C135.46 13.088 136.126 13.2533 136.692 13.584C137.257 13.9147 137.678 14.3307 137.956 14.832V13.232H139.428V22H137.956V20.368C137.668 20.88 137.236 21.3067 136.66 21.648C136.094 21.9787 135.433 22.144 134.676 22.144C133.897 22.144 133.193 21.952 132.564 21.568C131.934 21.184 131.438 20.6453 131.076 19.952C130.713 19.2587 130.532 18.4693 130.532 17.584ZM137.956 17.6C137.956 16.9387 137.822 16.3627 137.556 15.872C137.289 15.3813 136.926 15.008 136.468 14.752C136.02 14.4853 135.524 14.352 134.98 14.352C134.436 14.352 133.94 14.48 133.492 14.736C133.044 14.992 132.686 15.3653 132.42 15.856C132.153 16.3467 132.02 16.9227 132.02 17.584C132.02 18.256 132.153 18.8427 132.42 19.344C132.686 19.8347 133.044 20.2133 133.492 20.48C133.94 20.736 134.436 20.864 134.98 20.864C135.524 20.864 136.02 20.736 136.468 20.48C136.926 20.2133 137.289 19.8347 137.556 19.344C137.822 18.8427 137.956 18.2613 137.956 17.6ZM141.344 17.6C141.344 16.6933 141.526 15.904 141.888 15.232C142.251 14.5493 142.752 14.0213 143.392 13.648C144.043 13.2747 144.784 13.088 145.616 13.088C146.694 13.088 147.579 13.3493 148.272 13.872C148.976 14.3947 149.44 15.12 149.664 16.048H148.096C147.947 15.5147 147.654 15.0933 147.216 14.784C146.79 14.4747 146.256 14.32 145.616 14.32C144.784 14.32 144.112 14.608 143.6 15.184C143.088 15.7493 142.832 16.5547 142.832 17.6C142.832 18.656 143.088 19.472 143.6 20.048C144.112 20.624 144.784 20.912 145.616 20.912C146.256 20.912 146.79 20.7627 147.216 20.464C147.643 20.1653 147.936 19.7387 148.096 19.184H149.664C149.43 20.08 148.96 20.8 148.256 21.344C147.552 21.8773 146.672 22.144 145.616 22.144C144.784 22.144 144.043 21.9573 143.392 21.584C142.752 21.2107 142.251 20.6827 141.888 20C141.526 19.3173 141.344 18.5173 141.344 17.6ZM159.607 17.28C159.607 17.5573 159.591 17.8507 159.559 18.16H152.551C152.604 19.024 152.898 19.7013 153.431 20.192C153.975 20.672 154.631 20.912 155.399 20.912C156.028 20.912 156.551 20.768 156.967 20.48C157.394 20.1813 157.692 19.7867 157.863 19.296H159.431C159.196 20.1387 158.727 20.8267 158.023 21.36C157.319 21.8827 156.444 22.144 155.399 22.144C154.567 22.144 153.82 21.9573 153.159 21.584C152.508 21.2107 151.996 20.6827 151.623 20C151.25 19.3067 151.063 18.5067 151.063 17.6C151.063 16.6933 151.244 15.8987 151.607 15.216C151.97 14.5333 152.476 14.0107 153.127 13.648C153.788 13.2747 154.546 13.088 155.399 13.088C156.231 13.088 156.967 13.2693 157.607 13.632C158.247 13.9947 158.738 14.496 159.079 15.136C159.431 15.7653 159.607 16.48 159.607 17.28ZM158.103 16.976C158.103 16.4213 157.98 15.9467 157.735 15.552C157.49 15.1467 157.154 14.8427 156.727 14.64C156.311 14.4267 155.847 14.32 155.335 14.32C154.599 14.32 153.97 14.5547 153.447 15.024C152.935 15.4933 152.642 16.144 152.567 16.976H158.103ZM162.985 14.864C163.284 14.3413 163.721 13.9147 164.297 13.584C164.873 13.2533 165.529 13.088 166.265 13.088C167.054 13.088 167.764 13.2747 168.393 13.648C169.022 14.0213 169.518 14.5493 169.881 15.232C170.244 15.904 170.425 16.688 170.425 17.584C170.425 18.4693 170.244 19.2587 169.881 19.952C169.518 20.6453 169.017 21.184 168.377 21.568C167.748 21.952 167.044 22.144 166.265 22.144C165.508 22.144 164.841 21.9787 164.265 21.648C163.7 21.3173 163.273 20.896 162.985 20.384V22H161.529V10.16H162.985V14.864ZM168.937 17.584C168.937 16.9227 168.804 16.3467 168.537 15.856C168.27 15.3653 167.908 14.992 167.449 14.736C167.001 14.48 166.505 14.352 165.961 14.352C165.428 14.352 164.932 14.4853 164.473 14.752C164.025 15.008 163.662 15.3867 163.385 15.888C163.118 16.3787 162.985 16.9493 162.985 17.6C162.985 18.2613 163.118 18.8427 163.385 19.344C163.662 19.8347 164.025 20.2133 164.473 20.48C164.932 20.736 165.428 20.864 165.961 20.864C166.505 20.864 167.001 20.736 167.449 20.48C167.908 20.2133 168.27 19.8347 168.537 19.344C168.804 18.8427 168.937 18.256 168.937 17.584ZM176.165 22.144C175.344 22.144 174.597 21.9573 173.925 21.584C173.264 21.2107 172.741 20.6827 172.357 20C171.984 19.3067 171.797 18.5067 171.797 17.6C171.797 16.704 171.989 15.9147 172.373 15.232C172.768 14.5387 173.301 14.0107 173.973 13.648C174.645 13.2747 175.397 13.088 176.229 13.088C177.061 13.088 177.813 13.2747 178.485 13.648C179.157 14.0107 179.685 14.5333 180.069 15.216C180.464 15.8987 180.661 16.6933 180.661 17.6C180.661 18.5067 180.459 19.3067 180.053 20C179.659 20.6827 179.12 21.2107 178.437 21.584C177.755 21.9573 176.997 22.144 176.165 22.144ZM176.165 20.864C176.688 20.864 177.179 20.7413 177.637 20.496C178.096 20.2507 178.464 19.8827 178.741 19.392C179.029 18.9013 179.173 18.304 179.173 17.6C179.173 16.896 179.035 16.2987 178.757 15.808C178.48 15.3173 178.117 14.9547 177.669 14.72C177.221 14.4747 176.736 14.352 176.213 14.352C175.68 14.352 175.189 14.4747 174.741 14.72C174.304 14.9547 173.952 15.3173 173.685 15.808C173.419 16.2987 173.285 16.896 173.285 17.6C173.285 18.3147 173.413 18.9173 173.669 19.408C173.936 19.8987 174.288 20.2667 174.725 20.512C175.163 20.7467 175.643 20.864 176.165 20.864ZM186.4 22.144C185.578 22.144 184.832 21.9573 184.16 21.584C183.498 21.2107 182.976 20.6827 182.592 20C182.218 19.3067 182.032 18.5067 182.032 17.6C182.032 16.704 182.224 15.9147 182.608 15.232C183.002 14.5387 183.536 14.0107 184.208 13.648C184.88 13.2747 185.632 13.088 186.464 13.088C187.296 13.088 188.048 13.2747 188.72 13.648C189.392 14.0107 189.92 14.5333 190.304 15.216C190.698 15.8987 190.896 16.6933 190.896 17.6C190.896 18.5067 190.693 19.3067 190.288 20C189.893 20.6827 189.354 21.2107 188.672 21.584C187.989 21.9573 187.232 22.144 186.4 22.144ZM186.4 20.864C186.922 20.864 187.413 20.7413 187.872 20.496C188.33 20.2507 188.698 19.8827 188.976 19.392C189.264 18.9013 189.408 18.304 189.408 17.6C189.408 16.896 189.269 16.2987 188.992 15.808C188.714 15.3173 188.352 14.9547 187.904 14.72C187.456 14.4747 186.97 14.352 186.448 14.352C185.914 14.352 185.424 14.4747 184.976 14.72C184.538 14.9547 184.186 15.3173 183.92 15.808C183.653 16.2987 183.52 16.896 183.52 17.6C183.52 18.3147 183.648 18.9173 183.904 19.408C184.17 19.8987 184.522 20.2667 184.96 20.512C185.397 20.7467 185.877 20.864 186.4 20.864ZM197.706 22L194.266 18.128V22H192.81V10.16H194.266V17.12L197.642 13.232H199.674L195.546 17.6L199.69 22H197.706Z" fill="#2F2F2F"/>
<path d="M13.0789 5.31333H16V0.225333C15.496 0.156 13.7629 0 11.7444 0C2.50246 0 5.01692 10.4667 4.64895 12H0V17.688H4.64761V32H10.3458V17.6893H14.8054L15.5134 12.0013H10.3445C10.5951 8.236 9.32989 5.31333 13.0789 5.31333Z" fill="#3B5999"/>
</svg>
