<svg width="193" height="32" viewBox="0 0 193 32" fill="none" xmlns="http://www.w3.org/2000/svg">
<g clip-path="url(#clip0_1_129)">
<path d="M7.09188 19.3378L5.978 23.4961L1.90681 23.5822C0.690125 21.3255 0 18.7436 0 15.9999C0 13.3467 0.64525 10.8447 1.789 8.6416H1.78988L5.41437 9.3061L7.00212 12.9089C6.66981 13.8777 6.48869 14.9177 6.48869 15.9999C6.48881 17.1743 6.70156 18.2997 7.09188 19.3378Z" fill="#FBBB00"/>
<path d="M31.7203 13.0107C31.904 13.9786 31.9998 14.9782 31.9998 15.9997C31.9998 17.1452 31.8794 18.2626 31.6499 19.3404C30.8711 23.0081 28.8359 26.2107 26.0166 28.4771L26.0157 28.4762L21.4504 28.2433L20.8043 24.2099C22.6751 23.1127 24.1371 21.3958 24.9072 19.3404H16.3516V13.0107H25.032H31.7203Z" fill="#518EF8"/>
<path d="M26.0162 28.4763L26.0171 28.4772C23.2752 30.6811 19.792 31.9998 16.0004 31.9998C9.90723 31.9998 4.60966 28.5941 1.90723 23.5823L7.09229 19.3379C8.44348 22.944 11.9222 25.5111 16.0004 25.5111C17.7533 25.5111 19.3956 25.0372 20.8048 24.21L26.0162 28.4763Z" fill="#28B446"/>
<path d="M26.2128 3.6835L21.0295 7.927C19.5711 7.01538 17.8471 6.48875 16.0001 6.48875C11.8295 6.48875 8.28575 9.17356 7.00225 12.909L1.78994 8.64175H1.78906C4.45194 3.50769 9.81631 0 16.0001 0C19.8822 0 23.4418 1.38287 26.2128 3.6835Z" fill="#F14336"/>
</g>
<path d="M53.688 20.816H57.592V22H52.232V10.848H53.688V20.816ZM62.9623 22.144C62.1409 22.144 61.3943 21.9573 60.7223 21.584C60.0609 21.2107 59.5383 20.6827 59.1543 20C58.7809 19.3067 58.5943 18.5067 58.5943 17.6C58.5943 16.704 58.7863 15.9147 59.1703 15.232C59.5649 14.5387 60.0983 14.0107 60.7703 13.648C61.4423 13.2747 62.1943 13.088 63.0263 13.088C63.8583 13.088 64.6103 13.2747 65.2823 13.648C65.9543 14.0107 66.4823 14.5333 66.8663 15.216C67.2609 15.8987 67.4583 16.6933 67.4583 17.6C67.4583 18.5067 67.2556 19.3067 66.8503 20C66.4556 20.6827 65.9169 21.2107 65.2343 21.584C64.5516 21.9573 63.7943 22.144 62.9623 22.144ZM62.9623 20.864C63.4849 20.864 63.9756 20.7413 64.4343 20.496C64.8929 20.2507 65.2609 19.8827 65.5383 19.392C65.8263 18.9013 65.9703 18.304 65.9703 17.6C65.9703 16.896 65.8316 16.2987 65.5543 15.808C65.2769 15.3173 64.9143 14.9547 64.4663 14.72C64.0183 14.4747 63.5329 14.352 63.0103 14.352C62.4769 14.352 61.9863 14.4747 61.5383 14.72C61.1009 14.9547 60.7489 15.3173 60.4823 15.808C60.2156 16.2987 60.0823 16.896 60.0823 17.6C60.0823 18.3147 60.2103 18.9173 60.4663 19.408C60.7329 19.8987 61.0849 20.2667 61.5223 20.512C61.9596 20.7467 62.4396 20.864 62.9623 20.864ZM72.9886 13.088C73.746 13.088 74.4073 13.2533 74.9726 13.584C75.5486 13.9147 75.9753 14.3307 76.2526 14.832V13.232H77.7246V22.192C77.7246 22.992 77.554 23.7013 77.2126 24.32C76.8713 24.9493 76.3806 25.44 75.7406 25.792C75.1113 26.144 74.3753 26.32 73.5326 26.32C72.3806 26.32 71.4206 26.048 70.6526 25.504C69.8846 24.96 69.4313 24.2187 69.2926 23.28H70.7326C70.8926 23.8133 71.2233 24.24 71.7246 24.56C72.226 24.8907 72.8286 25.056 73.5326 25.056C74.3326 25.056 74.9833 24.8053 75.4846 24.304C75.9966 23.8027 76.2526 23.0987 76.2526 22.192V20.352C75.9646 20.864 75.538 21.2907 74.9726 21.632C74.4073 21.9733 73.746 22.144 72.9886 22.144C72.21 22.144 71.5006 21.952 70.8606 21.568C70.2313 21.184 69.7353 20.6453 69.3726 19.952C69.01 19.2587 68.8286 18.4693 68.8286 17.584C68.8286 16.688 69.01 15.904 69.3726 15.232C69.7353 14.5493 70.2313 14.0213 70.8606 13.648C71.5006 13.2747 72.21 13.088 72.9886 13.088ZM76.2526 17.6C76.2526 16.9387 76.1193 16.3627 75.8526 15.872C75.586 15.3813 75.2233 15.008 74.7646 14.752C74.3166 14.4853 73.8206 14.352 73.2766 14.352C72.7326 14.352 72.2366 14.48 71.7886 14.736C71.3406 14.992 70.9833 15.3653 70.7166 15.856C70.45 16.3467 70.3166 16.9227 70.3166 17.584C70.3166 18.256 70.45 18.8427 70.7166 19.344C70.9833 19.8347 71.3406 20.2133 71.7886 20.48C72.2366 20.736 72.7326 20.864 73.2766 20.864C73.8206 20.864 74.3166 20.736 74.7646 20.48C75.2233 20.2133 75.586 19.8347 75.8526 19.344C76.1193 18.8427 76.2526 18.2613 76.2526 17.6ZM80.9371 11.808C80.6598 11.808 80.4251 11.712 80.2331 11.52C80.0411 11.328 79.9451 11.0933 79.9451 10.816C79.9451 10.5387 80.0411 10.304 80.2331 10.112C80.4251 9.92 80.6598 9.824 80.9371 9.824C81.2038 9.824 81.4278 9.92 81.6091 10.112C81.8011 10.304 81.8971 10.5387 81.8971 10.816C81.8971 11.0933 81.8011 11.328 81.6091 11.52C81.4278 11.712 81.2038 11.808 80.9371 11.808ZM81.6411 13.232V22H80.1851V13.232H81.6411ZM88.3946 13.072C89.4613 13.072 90.3253 13.3973 90.9866 14.048C91.648 14.688 91.9786 15.616 91.9786 16.832V22H90.5386V17.04C90.5386 16.1653 90.32 15.4987 89.8826 15.04C89.4453 14.5707 88.848 14.336 88.0906 14.336C87.3226 14.336 86.7093 14.576 86.2506 15.056C85.8026 15.536 85.5786 16.2347 85.5786 17.152V22H84.1226V13.232H85.5786V14.48C85.8666 14.032 86.256 13.6853 86.7466 13.44C87.248 13.1947 87.7973 13.072 88.3946 13.072ZM110.303 13.232L107.567 22H106.063L103.951 15.04L101.839 22H100.335L97.5826 13.232H99.0706L101.087 20.592L103.263 13.232H104.751L106.879 20.608L108.863 13.232H110.303ZM112.5 11.808C112.222 11.808 111.988 11.712 111.796 11.52C111.604 11.328 111.508 11.0933 111.508 10.816C111.508 10.5387 111.604 10.304 111.796 10.112C111.988 9.92 112.222 9.824 112.5 9.824C112.766 9.824 112.99 9.92 113.172 10.112C113.364 10.304 113.46 10.5387 113.46 10.816C113.46 11.0933 113.364 11.328 113.172 11.52C112.99 11.712 112.766 11.808 112.5 11.808ZM113.204 13.232V22H111.748V13.232H113.204ZM117.461 14.432V19.6C117.461 20.0267 117.552 20.3307 117.733 20.512C117.914 20.6827 118.229 20.768 118.677 20.768H119.749V22H118.437C117.626 22 117.018 21.8133 116.613 21.44C116.208 21.0667 116.005 20.4533 116.005 19.6V14.432H114.869V13.232H116.005V11.024H117.461V13.232H119.749V14.432H117.461ZM125.865 13.072C126.527 13.072 127.124 13.216 127.657 13.504C128.191 13.7813 128.607 14.2027 128.905 14.768C129.215 15.3333 129.369 16.0213 129.369 16.832V22H127.929V17.04C127.929 16.1653 127.711 15.4987 127.273 15.04C126.836 14.5707 126.239 14.336 125.481 14.336C124.713 14.336 124.1 14.576 123.641 15.056C123.193 15.536 122.969 16.2347 122.969 17.152V22H121.513V10.16H122.969V14.48C123.257 14.032 123.652 13.6853 124.153 13.44C124.665 13.1947 125.236 13.072 125.865 13.072ZM144.461 14.08C144.152 13.4293 143.704 12.928 143.117 12.576C142.531 12.2133 141.848 12.032 141.069 12.032C140.291 12.032 139.587 12.2133 138.957 12.576C138.339 12.928 137.848 13.44 137.485 14.112C137.133 14.7733 136.957 15.5413 136.957 16.416C136.957 17.2907 137.133 18.0587 137.485 18.72C137.848 19.3813 138.339 19.8933 138.957 20.256C139.587 20.608 140.291 20.784 141.069 20.784C142.157 20.784 143.053 20.4587 143.757 19.808C144.461 19.1573 144.872 18.2773 144.989 17.168H140.541V15.984H146.541V17.104C146.456 18.0213 146.168 18.864 145.677 19.632C145.187 20.3893 144.541 20.992 143.741 21.44C142.941 21.8773 142.051 22.096 141.069 22.096C140.035 22.096 139.091 21.856 138.237 21.376C137.384 20.8853 136.707 20.208 136.205 19.344C135.715 18.48 135.469 17.504 135.469 16.416C135.469 15.328 135.715 14.352 136.205 13.488C136.707 12.6133 137.384 11.936 138.237 11.456C139.091 10.9653 140.035 10.72 141.069 10.72C142.253 10.72 143.299 11.0133 144.205 11.6C145.123 12.1867 145.789 13.0133 146.205 14.08H144.461ZM152.29 22.144C151.469 22.144 150.722 21.9573 150.05 21.584C149.389 21.2107 148.866 20.6827 148.482 20C148.109 19.3067 147.922 18.5067 147.922 17.6C147.922 16.704 148.114 15.9147 148.498 15.232C148.893 14.5387 149.426 14.0107 150.098 13.648C150.77 13.2747 151.522 13.088 152.354 13.088C153.186 13.088 153.938 13.2747 154.61 13.648C155.282 14.0107 155.81 14.5333 156.194 15.216C156.589 15.8987 156.786 16.6933 156.786 17.6C156.786 18.5067 156.584 19.3067 156.178 20C155.784 20.6827 155.245 21.2107 154.562 21.584C153.88 21.9573 153.122 22.144 152.29 22.144ZM152.29 20.864C152.813 20.864 153.304 20.7413 153.762 20.496C154.221 20.2507 154.589 19.8827 154.866 19.392C155.154 18.9013 155.298 18.304 155.298 17.6C155.298 16.896 155.16 16.2987 154.882 15.808C154.605 15.3173 154.242 14.9547 153.794 14.72C153.346 14.4747 152.861 14.352 152.338 14.352C151.805 14.352 151.314 14.4747 150.866 14.72C150.429 14.9547 150.077 15.3173 149.81 15.808C149.544 16.2987 149.41 16.896 149.41 17.6C149.41 18.3147 149.538 18.9173 149.794 19.408C150.061 19.8987 150.413 20.2667 150.85 20.512C151.288 20.7467 151.768 20.864 152.29 20.864ZM162.525 22.144C161.703 22.144 160.957 21.9573 160.285 21.584C159.623 21.2107 159.101 20.6827 158.717 20C158.343 19.3067 158.157 18.5067 158.157 17.6C158.157 16.704 158.349 15.9147 158.733 15.232C159.127 14.5387 159.661 14.0107 160.333 13.648C161.005 13.2747 161.757 13.088 162.589 13.088C163.421 13.088 164.173 13.2747 164.845 13.648C165.517 14.0107 166.045 14.5333 166.429 15.216C166.823 15.8987 167.021 16.6933 167.021 17.6C167.021 18.5067 166.818 19.3067 166.413 20C166.018 20.6827 165.479 21.2107 164.797 21.584C164.114 21.9573 163.357 22.144 162.525 22.144ZM162.525 20.864C163.047 20.864 163.538 20.7413 163.997 20.496C164.455 20.2507 164.823 19.8827 165.101 19.392C165.389 18.9013 165.533 18.304 165.533 17.6C165.533 16.896 165.394 16.2987 165.117 15.808C164.839 15.3173 164.477 14.9547 164.029 14.72C163.581 14.4747 163.095 14.352 162.573 14.352C162.039 14.352 161.549 14.4747 161.101 14.72C160.663 14.9547 160.311 15.3173 160.045 15.808C159.778 16.2987 159.645 16.896 159.645 17.6C159.645 18.3147 159.773 18.9173 160.029 19.408C160.295 19.8987 160.647 20.2667 161.085 20.512C161.522 20.7467 162.002 20.864 162.525 20.864ZM172.551 13.088C173.308 13.088 173.97 13.2533 174.535 13.584C175.111 13.9147 175.538 14.3307 175.815 14.832V13.232H177.287V22.192C177.287 22.992 177.116 23.7013 176.775 24.32C176.434 24.9493 175.943 25.44 175.303 25.792C174.674 26.144 173.938 26.32 173.095 26.32C171.943 26.32 170.983 26.048 170.215 25.504C169.447 24.96 168.994 24.2187 168.855 23.28H170.295C170.455 23.8133 170.786 24.24 171.287 24.56C171.788 24.8907 172.391 25.056 173.095 25.056C173.895 25.056 174.546 24.8053 175.047 24.304C175.559 23.8027 175.815 23.0987 175.815 22.192V20.352C175.527 20.864 175.1 21.2907 174.535 21.632C173.97 21.9733 173.308 22.144 172.551 22.144C171.772 22.144 171.063 21.952 170.423 21.568C169.794 21.184 169.298 20.6453 168.935 19.952C168.572 19.2587 168.391 18.4693 168.391 17.584C168.391 16.688 168.572 15.904 168.935 15.232C169.298 14.5493 169.794 14.0213 170.423 13.648C171.063 13.2747 171.772 13.088 172.551 13.088ZM175.815 17.6C175.815 16.9387 175.682 16.3627 175.415 15.872C175.148 15.3813 174.786 15.008 174.327 14.752C173.879 14.4853 173.383 14.352 172.839 14.352C172.295 14.352 171.799 14.48 171.351 14.736C170.903 14.992 170.546 15.3653 170.279 15.856C170.012 16.3467 169.879 16.9227 169.879 17.584C169.879 18.256 170.012 18.8427 170.279 19.344C170.546 19.8347 170.903 20.2133 171.351 20.48C171.799 20.736 172.295 20.864 172.839 20.864C173.383 20.864 173.879 20.736 174.327 20.48C174.786 20.2133 175.148 19.8347 175.415 19.344C175.682 18.8427 175.815 18.2613 175.815 17.6ZM181.204 10.16V22H179.748V10.16H181.204ZM191.685 17.28C191.685 17.5573 191.669 17.8507 191.637 18.16H184.629C184.682 19.024 184.976 19.7013 185.509 20.192C186.053 20.672 186.709 20.912 187.477 20.912C188.106 20.912 188.629 20.768 189.045 20.48C189.472 20.1813 189.77 19.7867 189.941 19.296H191.509C191.274 20.1387 190.805 20.8267 190.101 21.36C189.397 21.8827 188.522 22.144 187.477 22.144C186.645 22.144 185.898 21.9573 185.237 21.584C184.586 21.2107 184.074 20.6827 183.701 20C183.328 19.3067 183.141 18.5067 183.141 17.6C183.141 16.6933 183.322 15.8987 183.685 15.216C184.048 14.5333 184.554 14.0107 185.205 13.648C185.866 13.2747 186.624 13.088 187.477 13.088C188.309 13.088 189.045 13.2693 189.685 13.632C190.325 13.9947 190.816 14.496 191.157 15.136C191.509 15.7653 191.685 16.48 191.685 17.28ZM190.181 16.976C190.181 16.4213 190.058 15.9467 189.813 15.552C189.568 15.1467 189.232 14.8427 188.805 14.64C188.389 14.4267 187.925 14.32 187.413 14.32C186.677 14.32 186.048 14.5547 185.525 15.024C185.013 15.4933 184.72 16.144 184.645 16.976H190.181Z" fill="#2F2F2F"/>
<defs>
<clipPath id="clip0_1_129">
<rect width="32" height="32" fill="white"/>
</clipPath>
</defs>
</svg>
